# xmcd CD database file
#
# Track frame offsets:
#	150
#	14424
#	28336
#	41684
#	54723
#	68753
#	81638
#	95436
#	108904
#	123165
#	137770
#	151339
#
# Disc length: 2179 seconds
#
# Revision: 1
# Processed by: cddbd v1.5PL3 Copyright (c) Steve Scherf et al.
# Submitted via: CDex 1.51
#
DISCID=a208810c
DTITLE=Billie Holiday - All Of Me
DYEAR=1900
DGENRE=Jazz
TTITLE0=Embraceable You
TTITLE1=More Than You Know
TTITLE2=Night and Day
TTITLE3=God Bless The Child
TTITLE4=Tell Me More
TTITLE5=St. Louis Blues
TTITLE6=The Man I Love
TTITLE7=All Of Me
TTITLE8=Gloomy Sunday
TTITLE9=I'm Yours
TTITLE10=He's Funny That Way
TTITLE11=Here It Is Tomorrow Again
EXTD=
EXTT0=
EXTT1=
EXTT2=
EXTT3=
EXTT4=
EXTT5=
EXTT6=
EXTT7=
EXTT8=
EXTT9=
EXTT10=
EXTT11=
PLAYORDER=
